<svg width="597" height="128" viewBox="0 0 597 128" fill="none" xmlns="http://www.w3.org/2000/svg">
<path d="M28.3325 43L26.3989 35.6416H13.6426L11.6553 43H0L12.8101 3.57617H26.9629L39.9341 43H28.3325ZM24.1968 26.9404L22.5049 20.4951C22.111 19.0628 21.6276 17.2098 21.0547 14.936C20.4997 12.6623 20.1326 11.033 19.9536 10.0483C19.7925 10.9614 19.4702 12.4653 18.9868 14.5601C18.5213 16.6548 17.474 20.7816 15.8447 26.9404H24.1968ZM61.9556 12.0356C62.8687 12.0356 63.737 12.1073 64.5605 12.2505L65.1514 12.3579L64.2114 22.2676C63.3521 22.0527 62.1615 21.9453 60.6396 21.9453C58.348 21.9453 56.6829 22.4735 55.6445 23.5298C54.6061 24.5682 54.0869 26.0721 54.0869 28.0415V43H43.5864V12.5728H51.4014L53.0396 17.4336H53.5498C54.4271 15.8223 55.6445 14.5243 57.2021 13.5396C58.7777 12.5369 60.3621 12.0356 61.9556 12.0356ZM84.3262 35.2388C85.7406 35.2388 87.4325 34.8896 89.4019 34.1914V41.8452C87.9875 42.4539 86.6357 42.8836 85.3467 43.1343C84.0755 43.4028 82.5806 43.5371 80.8618 43.5371C77.3348 43.5371 74.7925 42.6777 73.2349 40.959C71.6772 39.2223 70.8984 36.5636 70.8984 32.9829V20.4414H67.2192V16.1714L71.8921 12.8682L74.6045 6.47656H81.4795V12.5728H88.9453V20.4414H81.4795V32.2847C81.4795 34.2541 82.4284 35.2388 84.3262 35.2388ZM105.273 43H94.7729V12.5728H105.273V43ZM94.5044 4.99951C94.5044 3.42399 94.943 2.2513 95.8203 1.48145C96.6976 0.711589 98.112 0.32666 100.063 0.32666C102.015 0.32666 103.438 0.72054 104.333 1.5083C105.229 2.29606 105.676 3.4598 105.676 4.99951C105.676 8.07894 103.805 9.61865 100.063 9.61865C96.3574 9.61865 94.5044 8.07894 94.5044 4.99951ZM145.879 43H135.378V12.5728H145.879V43ZM135.11 4.99951C135.11 3.42399 135.549 2.2513 136.426 1.48145C137.303 0.711589 138.717 0.32666 140.669 0.32666C142.62 0.32666 144.044 0.72054 144.939 1.5083C145.834 2.29606 146.282 3.4598 146.282 4.99951C146.282 8.07894 144.411 9.61865 140.669 9.61865C136.963 9.61865 135.11 8.07894 135.11 4.99951ZM131.189 20.4414H124.717V43H114.216V20.4414H110.188V15.2852L114.431 12.707V12.1968C114.431 8.18636 115.246 5.30387 116.875 3.54932C118.522 1.79476 121.154 0.91748 124.771 0.91748C126.167 0.91748 127.483 1.0249 128.718 1.23975C129.972 1.45459 131.422 1.83057 133.069 2.36768L130.813 9.16211C129.524 8.80404 128.262 8.625 127.026 8.625C126.221 8.625 125.63 8.87565 125.254 9.37695C124.896 9.86035 124.717 10.6571 124.717 11.7671V12.5728H131.189V20.4414ZM167.068 43.5371C162.091 43.5371 158.313 42.1943 155.735 39.5088C153.175 36.8232 151.895 32.965 151.895 27.9341C151.895 22.8853 153.282 18.9733 156.057 16.1982C158.832 13.4232 162.78 12.0356 167.9 12.0356C171.427 12.0356 174.749 12.8055 177.864 14.3452L174.775 22.1064C173.504 21.5514 172.332 21.1128 171.257 20.7905C170.183 20.4504 169.064 20.2803 167.9 20.2803C166.2 20.2803 164.884 20.9427 163.953 22.2676C163.022 23.5924 162.556 25.4634 162.556 27.8804C162.556 32.7502 164.355 35.1851 167.954 35.1851C171.034 35.1851 173.988 34.2899 176.816 32.4995V40.8516C174.113 42.6419 170.863 43.5371 167.068 43.5371ZM193.413 43H182.913V12.5728H193.413V43ZM182.644 4.99951C182.644 3.42399 183.083 2.2513 183.96 1.48145C184.837 0.711589 186.252 0.32666 188.203 0.32666C190.155 0.32666 191.578 0.72054 192.473 1.5083C193.368 2.29606 193.816 3.4598 193.816 4.99951C193.816 8.07894 191.945 9.61865 188.203 9.61865C184.497 9.61865 182.644 8.07894 182.644 4.99951ZM220.591 43L218.577 38.9717H218.362C216.947 40.7262 215.506 41.9258 214.038 42.5703C212.57 43.2148 210.672 43.5371 208.345 43.5371C205.48 43.5371 203.224 42.6777 201.577 40.959C199.93 39.2402 199.106 36.8232 199.106 33.708C199.106 30.4674 200.234 28.0594 202.49 26.4839C204.746 24.8905 208.014 23.9953 212.292 23.7983L217.368 23.6372V23.2075C217.368 20.701 216.133 19.4478 213.662 19.4478C211.442 19.4478 208.622 20.1997 205.203 21.7036L202.168 14.7749C205.713 12.9487 210.189 12.0356 215.596 12.0356C219.499 12.0356 222.515 13.0024 224.646 14.936C226.794 16.8696 227.869 19.5731 227.869 23.0464V43H220.591ZM212.803 36.125C214.074 36.125 215.157 35.7222 216.052 34.9165C216.965 34.1108 217.422 33.0635 217.422 31.7744V29.4111L215.005 29.5186C211.549 29.6439 209.822 30.915 209.822 33.332C209.822 35.194 210.815 36.125 212.803 36.125ZM245.513 43H235.012V1.21289H245.513V43ZM277.632 43H267.131V12.5728H277.632V43ZM266.863 4.99951C266.863 3.42399 267.301 2.2513 268.179 1.48145C269.056 0.711589 270.47 0.32666 272.422 0.32666C274.373 0.32666 275.797 0.72054 276.692 1.5083C277.587 2.29606 278.035 3.4598 278.035 4.99951C278.035 8.07894 276.164 9.61865 272.422 9.61865C268.716 9.61865 266.863 8.07894 266.863 4.99951ZM304.165 43V26.4033C304.165 24.3802 303.87 22.8584 303.279 21.8379C302.706 20.7995 301.775 20.2803 300.486 20.2803C298.713 20.2803 297.433 20.9875 296.646 22.4019C295.858 23.8162 295.464 26.2422 295.464 29.6797V43H284.963V12.5728H292.886L294.202 16.3325H294.819C295.715 14.9002 296.95 13.826 298.525 13.1099C300.119 12.3937 301.945 12.0356 304.004 12.0356C307.37 12.0356 309.984 13.0114 311.846 14.9629C313.726 16.9144 314.666 19.6626 314.666 23.2075V43H304.165ZM336.714 35.2388C338.128 35.2388 339.82 34.8896 341.79 34.1914V41.8452C340.375 42.4539 339.023 42.8836 337.734 43.1343C336.463 43.4028 334.968 43.5371 333.25 43.5371C329.722 43.5371 327.18 42.6777 325.623 40.959C324.065 39.2223 323.286 36.5636 323.286 32.9829V20.4414H319.607V16.1714L324.28 12.8682L326.992 6.47656H333.867V12.5728H341.333V20.4414H333.867V32.2847C333.867 34.2541 334.816 35.2388 336.714 35.2388ZM361.797 43.5371C356.73 43.5371 352.791 42.1943 349.98 39.5088C347.188 36.8053 345.791 32.965 345.791 27.9878C345.791 22.8494 347.089 18.9106 349.685 16.1714C352.281 13.4142 355.987 12.0356 360.803 12.0356C365.387 12.0356 368.923 13.2352 371.411 15.6343C373.918 18.0155 375.171 21.453 375.171 25.9468V30.6196H356.399C356.471 32.3205 357.088 33.6543 358.252 34.6211C359.434 35.5879 361.036 36.0713 363.059 36.0713C364.903 36.0713 366.595 35.9012 368.135 35.561C369.692 35.203 371.375 34.6032 373.184 33.7617V41.3081C371.536 42.1496 369.836 42.7314 368.081 43.0537C366.326 43.376 364.232 43.5371 361.797 43.5371ZM361.179 19.1792C359.944 19.1792 358.905 19.5731 358.064 20.3608C357.24 21.1307 356.757 22.3481 356.614 24.0132H365.637C365.601 22.5451 365.181 21.3724 364.375 20.4951C363.587 19.6178 362.522 19.1792 361.179 19.1792ZM391.606 43H381.106V1.21289H391.606V43ZM409.385 43H398.884V1.21289H409.385V43ZM427.217 43H416.716V12.5728H427.217V43ZM416.448 4.99951C416.448 3.42399 416.886 2.2513 417.764 1.48145C418.641 0.711589 420.055 0.32666 422.007 0.32666C423.958 0.32666 425.382 0.72054 426.277 1.5083C427.172 2.29606 427.62 3.4598 427.62 4.99951C427.62 8.07894 425.749 9.61865 422.007 9.61865C418.301 9.61865 416.448 8.07894 416.448 4.99951ZM463.257 12.5728V17.6484L459.094 19.1792C459.667 20.2176 459.954 21.4261 459.954 22.8047C459.954 26.0811 458.799 28.6234 456.489 30.4316C454.198 32.2399 450.769 33.144 446.204 33.144C445.076 33.144 444.181 33.0724 443.518 32.9292C443.267 33.3947 443.142 33.8333 443.142 34.2451C443.142 34.7643 443.563 35.1672 444.404 35.4536C445.246 35.7222 446.347 35.8564 447.708 35.8564H452.756C459.578 35.8564 462.988 38.73 462.988 44.4771C462.988 48.1831 461.404 51.0656 458.235 53.1245C455.084 55.1834 450.653 56.2129 444.941 56.2129C440.627 56.2129 437.297 55.4878 434.951 54.0376C432.624 52.6053 431.46 50.5374 431.46 47.834C431.46 44.1995 433.716 41.8542 438.228 40.7979C437.297 40.404 436.482 39.7684 435.784 38.8911C435.103 38.0138 434.763 37.1455 434.763 36.2861C434.763 35.3372 435.023 34.5047 435.542 33.7886C436.061 33.0545 437.144 32.1862 438.792 31.1836C437.216 30.4854 435.972 29.3932 435.059 27.9072C434.163 26.4212 433.716 24.613 433.716 22.4824C433.716 19.1702 434.844 16.6011 437.1 14.7749C439.355 12.9487 442.578 12.0356 446.768 12.0356C447.323 12.0356 448.28 12.0983 449.641 12.2236C451.002 12.349 452.004 12.4653 452.649 12.5728H463.257ZM440.322 46.7866C440.322 47.646 440.788 48.3353 441.719 48.8545C442.65 49.3916 443.894 49.6602 445.452 49.6602C447.994 49.6602 450.026 49.3379 451.548 48.6934C453.088 48.0667 453.857 47.2521 453.857 46.2495C453.857 45.4438 453.392 44.8709 452.461 44.5308C451.53 44.2085 450.196 44.0474 448.459 44.0474H444.351C443.223 44.0474 442.265 44.307 441.477 44.8262C440.707 45.3633 440.322 46.0168 440.322 46.7866ZM443.625 22.5361C443.625 25.6514 444.709 27.209 446.875 27.209C447.878 27.209 448.647 26.8241 449.185 26.0542C449.74 25.2843 450.017 24.1296 450.017 22.5898C450.017 19.4388 448.97 17.8633 446.875 17.8633C444.709 17.8633 443.625 19.4209 443.625 22.5361ZM482.593 43.5371C477.526 43.5371 473.587 42.1943 470.776 39.5088C467.983 36.8053 466.587 32.965 466.587 27.9878C466.587 22.8494 467.885 18.9106 470.481 16.1714C473.077 13.4142 476.783 12.0356 481.599 12.0356C486.182 12.0356 489.718 13.2352 492.207 15.6343C494.714 18.0155 495.967 21.453 495.967 25.9468V30.6196H477.195C477.266 32.3205 477.884 33.6543 479.048 34.6211C480.229 35.5879 481.832 36.0713 483.855 36.0713C485.699 36.0713 487.391 35.9012 488.931 35.561C490.488 35.203 492.171 34.6032 493.979 33.7617V41.3081C492.332 42.1496 490.632 42.7314 488.877 43.0537C487.122 43.376 485.028 43.5371 482.593 43.5371ZM481.975 19.1792C480.74 19.1792 479.701 19.5731 478.86 20.3608C478.036 21.1307 477.553 22.3481 477.41 24.0132H486.433C486.397 22.5451 485.977 21.3724 485.171 20.4951C484.383 19.6178 483.318 19.1792 481.975 19.1792ZM521.104 43V26.4033C521.104 24.3802 520.808 22.8584 520.217 21.8379C519.644 20.7995 518.713 20.2803 517.424 20.2803C515.652 20.2803 514.372 20.9875 513.584 22.4019C512.796 23.8162 512.402 26.2422 512.402 29.6797V43H501.902V12.5728H509.824L511.14 16.3325H511.758C512.653 14.9002 513.888 13.826 515.464 13.1099C517.057 12.3937 518.883 12.0356 520.942 12.0356C524.308 12.0356 526.922 13.0114 528.784 14.9629C530.664 16.9144 531.604 19.6626 531.604 23.2075V43H521.104ZM552.605 43.5371C547.628 43.5371 543.85 42.1943 541.272 39.5088C538.712 36.8232 537.432 32.965 537.432 27.9341C537.432 22.8853 538.819 18.9733 541.594 16.1982C544.369 13.4232 548.317 12.0356 553.438 12.0356C556.965 12.0356 560.286 12.8055 563.401 14.3452L560.312 22.1064C559.041 21.5514 557.869 21.1128 556.794 20.7905C555.72 20.4504 554.601 20.2803 553.438 20.2803C551.737 20.2803 550.421 20.9427 549.49 22.2676C548.559 23.5924 548.093 25.4634 548.093 27.8804C548.093 32.7502 549.893 35.1851 553.491 35.1851C556.571 35.1851 559.525 34.2899 562.354 32.4995V40.8516C559.65 42.6419 556.401 43.5371 552.605 43.5371ZM583.086 43.5371C578.019 43.5371 574.08 42.1943 571.27 39.5088C568.477 36.8053 567.08 32.965 567.08 27.9878C567.08 22.8494 568.378 18.9106 570.974 16.1714C573.57 13.4142 577.276 12.0356 582.092 12.0356C586.676 12.0356 590.212 13.2352 592.7 15.6343C595.207 18.0155 596.46 21.453 596.46 25.9468V30.6196H577.688C577.76 32.3205 578.377 33.6543 579.541 34.6211C580.723 35.5879 582.325 36.0713 584.348 36.0713C586.192 36.0713 587.884 35.9012 589.424 35.561C590.981 35.203 592.664 34.6032 594.473 33.7617V41.3081C592.826 42.1496 591.125 42.7314 589.37 43.0537C587.616 43.376 585.521 43.5371 583.086 43.5371ZM582.468 19.1792C581.233 19.1792 580.194 19.5731 579.353 20.3608C578.529 21.1307 578.046 22.3481 577.903 24.0132H586.926C586.89 22.5451 586.47 21.3724 585.664 20.4951C584.876 19.6178 583.811 19.1792 582.468 19.1792ZM30.6421 114L27.9834 111.261C26.3721 112.281 25.0472 112.988 24.0088 113.382C22.9883 113.758 21.8335 114.045 20.5444 114.242C19.2733 114.439 17.8141 114.537 16.167 114.537C13.3382 114.537 10.8317 114.054 8.64746 113.087C6.48112 112.12 4.81608 110.768 3.65234 109.032C2.50651 107.295 1.93359 105.317 1.93359 103.097C1.93359 98.4059 4.36849 94.8162 9.23828 92.3276C8.12826 91.0744 7.25993 89.7495 6.6333 88.353C6.02458 86.9386 5.72021 85.3452 5.72021 83.5728C5.72021 80.7082 6.82129 78.4344 9.02344 76.7515C11.2435 75.0685 14.2871 74.2271 18.1543 74.2271C21.932 74.2271 24.8682 75.0685 26.9629 76.7515C29.0755 78.4165 30.1318 80.6903 30.1318 83.5728C30.1318 85.5601 29.5589 87.4041 28.4131 89.105C27.2852 90.7879 25.4948 92.3724 23.042 93.8584L28.3862 98.9341C29.729 96.8752 30.66 94.5477 31.1792 91.9517H42.0825C41.5454 94.4224 40.695 96.902 39.5312 99.3906C38.3854 101.861 37.0874 103.983 35.6372 105.755L44.231 114H30.6421ZM12.7563 102.345C12.7563 103.473 13.1592 104.395 13.9648 105.111C14.7705 105.827 15.8358 106.185 17.1606 106.185C18.1812 106.185 19.0763 106.051 19.8462 105.782C20.616 105.514 21.2069 105.209 21.6187 104.869L14.9585 98.1016C13.4904 99.1937 12.7563 100.608 12.7563 102.345ZM20.6787 83.5728C20.6787 82.6955 20.4191 82.0688 19.8999 81.6929C19.3986 81.299 18.763 81.1021 17.9932 81.1021C17.2412 81.1021 16.5788 81.3258 16.0059 81.7734C15.4508 82.221 15.1733 82.9372 15.1733 83.9219C15.1733 85.2646 15.9611 86.6522 17.5366 88.0845C18.5571 87.5116 19.3359 86.8312 19.873 86.0435C20.4102 85.2378 20.6787 84.4142 20.6787 83.5728ZM88.1396 102.076C88.1396 104.511 87.522 106.677 86.2866 108.575C85.0513 110.455 83.2699 111.923 80.9424 112.979C78.6149 114.018 75.8846 114.537 72.7515 114.537C70.1375 114.537 67.9443 114.358 66.1719 114C64.3994 113.624 62.5553 112.979 60.6396 112.066V102.613C62.6628 103.652 64.7664 104.466 66.9507 105.057C69.1349 105.63 71.1401 105.917 72.9663 105.917C74.5418 105.917 75.6966 105.648 76.4307 105.111C77.1647 104.556 77.5317 103.849 77.5317 102.989C77.5317 102.452 77.3796 101.987 77.0752 101.593C76.7887 101.181 76.3143 100.769 75.6519 100.357C75.0073 99.9456 73.2707 99.1042 70.4419 97.833C67.8817 96.6693 65.957 95.5413 64.668 94.4492C63.3968 93.3571 62.4479 92.1038 61.8213 90.6895C61.2126 89.2751 60.9082 87.6011 60.9082 85.6675C60.9082 82.0509 62.2241 79.2311 64.856 77.208C67.4878 75.1849 71.1043 74.1733 75.7056 74.1733C79.7697 74.1733 83.9144 75.1133 88.1396 76.9932L84.8901 85.1841C81.2199 83.5011 78.0509 82.6597 75.3833 82.6597C74.0047 82.6597 73.0021 82.9014 72.3755 83.3848C71.7489 83.8682 71.4355 84.4679 71.4355 85.1841C71.4355 85.9539 71.8294 86.6432 72.6172 87.252C73.4229 87.8607 75.5892 88.9707 79.1162 90.582C82.5 92.1038 84.8454 93.742 86.1523 95.4966C87.4772 97.2332 88.1396 99.4264 88.1396 102.076ZM89.9121 83.5728H100.977L106.133 101.029C106.383 101.942 106.554 103.043 106.643 104.332H106.858C107.001 103.097 107.216 102.014 107.502 101.083L112.793 83.5728H123.508L111.477 115.934C109.937 120.051 108.04 122.961 105.784 124.662C103.546 126.362 100.618 127.213 97.002 127.213C95.6055 127.213 94.1732 127.061 92.7051 126.756V118.512C93.654 118.727 94.7371 118.834 95.9546 118.834C96.8856 118.834 97.7002 118.655 98.3984 118.297C99.0967 117.939 99.7054 117.429 100.225 116.766C100.744 116.122 101.299 115.056 101.89 113.57L89.9121 83.5728ZM145.745 83.0356C149.057 83.0356 151.68 84.4232 153.613 87.1982C155.565 89.9733 156.541 93.8136 156.541 98.7192C156.541 103.661 155.556 107.537 153.586 110.348C151.635 113.141 148.914 114.537 145.422 114.537C144.294 114.537 143.292 114.412 142.415 114.161C141.537 113.928 140.75 113.597 140.051 113.167C139.371 112.738 138.574 112.022 137.661 111.019H137.017L135.352 114H127.161V72.2129H137.661V81.666C137.661 82.7939 137.536 84.7365 137.285 87.4937H137.661C138.682 85.9181 139.854 84.7812 141.179 84.083C142.522 83.3848 144.044 83.0356 145.745 83.0356ZM141.904 91.2803C140.436 91.2803 139.362 91.7905 138.682 92.811C138.001 93.8315 137.661 95.4339 137.661 97.6182V99.0952C137.661 101.584 138.001 103.374 138.682 104.466C139.362 105.541 140.472 106.078 142.012 106.078C143.247 106.078 144.196 105.451 144.858 104.198C145.521 102.927 145.852 101.065 145.852 98.6118C145.852 93.7241 144.536 91.2803 141.904 91.2803ZM177.246 114.537C172.179 114.537 168.241 113.194 165.43 110.509C162.637 107.805 161.24 103.965 161.24 98.9878C161.24 93.8494 162.538 89.9106 165.134 87.1714C167.73 84.4142 171.436 83.0356 176.252 83.0356C180.836 83.0356 184.372 84.2352 186.86 86.6343C189.367 89.0155 190.62 92.453 190.62 96.9468V101.62H171.848C171.92 103.32 172.537 104.654 173.701 105.621C174.883 106.588 176.485 107.071 178.508 107.071C180.352 107.071 182.044 106.901 183.584 106.561C185.142 106.203 186.825 105.603 188.633 104.762V112.308C186.986 113.15 185.285 113.731 183.53 114.054C181.776 114.376 179.681 114.537 177.246 114.537ZM176.628 90.1792C175.393 90.1792 174.355 90.5731 173.513 91.3608C172.69 92.1307 172.206 93.3481 172.063 95.0132H181.086C181.051 93.5451 180.63 92.3724 179.824 91.4951C179.036 90.6178 177.971 90.1792 176.628 90.1792ZM214.924 83.0356C215.837 83.0356 216.706 83.1073 217.529 83.2505L218.12 83.3579L217.18 93.2676C216.321 93.0527 215.13 92.9453 213.608 92.9453C211.317 92.9453 209.652 93.4735 208.613 94.5298C207.575 95.5682 207.056 97.0721 207.056 99.0415V114H196.555V83.5728H204.37L206.008 88.4336H206.519C207.396 86.8223 208.613 85.5243 210.171 84.5396C211.746 83.5369 213.331 83.0356 214.924 83.0356ZM260.176 104.654C260.176 107.913 259.066 110.375 256.846 112.04C254.626 113.705 251.439 114.537 247.285 114.537C245.029 114.537 243.069 114.412 241.404 114.161C239.739 113.928 238.038 113.49 236.301 112.845V104.439C237.931 105.156 239.712 105.746 241.646 106.212C243.597 106.677 245.334 106.91 246.855 106.91C249.129 106.91 250.266 106.391 250.266 105.353C250.266 104.815 249.944 104.341 249.299 103.929C248.673 103.5 246.829 102.676 243.767 101.458C240.974 100.313 239.023 99.0146 237.913 97.5645C236.803 96.0964 236.248 94.2433 236.248 92.0054C236.248 89.1766 237.34 86.9744 239.524 85.3989C241.708 83.8234 244.797 83.0356 248.789 83.0356C250.794 83.0356 252.674 83.2594 254.429 83.707C256.201 84.1367 258.036 84.7723 259.934 85.6138L257.087 92.3813C255.691 91.7547 254.214 91.2266 252.656 90.7969C251.099 90.3493 249.827 90.1255 248.843 90.1255C247.124 90.1255 246.265 90.5462 246.265 91.3877C246.265 91.9069 246.56 92.3545 247.151 92.7305C247.76 93.0885 249.496 93.8315 252.361 94.9595C254.491 95.8368 256.076 96.6961 257.114 97.5376C258.171 98.3791 258.94 99.3727 259.424 100.519C259.925 101.646 260.176 103.025 260.176 104.654ZM280.693 114.537C275.627 114.537 271.688 113.194 268.877 110.509C266.084 107.805 264.688 103.965 264.688 98.9878C264.688 93.8494 265.986 89.9106 268.582 87.1714C271.178 84.4142 274.884 83.0356 279.7 83.0356C284.283 83.0356 287.819 84.2352 290.308 86.6343C292.814 89.0155 294.067 92.453 294.067 96.9468V101.62H275.295C275.367 103.32 275.985 104.654 277.148 105.621C278.33 106.588 279.932 107.071 281.956 107.071C283.8 107.071 285.492 106.901 287.031 106.561C288.589 106.203 290.272 105.603 292.08 104.762V112.308C290.433 113.15 288.732 113.731 286.978 114.054C285.223 114.376 283.128 114.537 280.693 114.537ZM280.076 90.1792C278.84 90.1792 277.802 90.5731 276.96 91.3608C276.137 92.1307 275.653 93.3481 275.51 95.0132H284.534C284.498 93.5451 284.077 92.3724 283.271 91.4951C282.484 90.6178 281.418 90.1792 280.076 90.1792ZM313.86 114.537C308.883 114.537 305.105 113.194 302.527 110.509C299.967 107.823 298.687 103.965 298.687 98.9341C298.687 93.8853 300.074 89.9733 302.849 87.1982C305.624 84.4232 309.572 83.0356 314.692 83.0356C318.219 83.0356 321.541 83.8055 324.656 85.3452L321.567 93.1064C320.296 92.5514 319.124 92.1128 318.049 91.7905C316.975 91.4504 315.856 91.2803 314.692 91.2803C312.992 91.2803 311.676 91.9427 310.745 93.2676C309.814 94.5924 309.348 96.4634 309.348 98.8804C309.348 103.75 311.147 106.185 314.746 106.185C317.826 106.185 320.78 105.29 323.608 103.5V111.852C320.905 113.642 317.655 114.537 313.86 114.537ZM351.323 114L350.007 110.213H349.39C348.512 111.61 347.286 112.684 345.71 113.436C344.153 114.17 342.318 114.537 340.205 114.537C336.857 114.537 334.252 113.57 332.39 111.637C330.528 109.685 329.597 106.937 329.597 103.392V83.5728H340.098V100.196C340.098 102.184 340.375 103.688 340.93 104.708C341.503 105.729 342.434 106.239 343.723 106.239C345.531 106.239 346.82 105.532 347.59 104.117C348.36 102.685 348.745 100.277 348.745 96.8931V83.5728H359.246V114H351.323ZM384.866 83.0356C385.779 83.0356 386.647 83.1073 387.471 83.2505L388.062 83.3579L387.122 93.2676C386.262 93.0527 385.072 92.9453 383.55 92.9453C381.258 92.9453 379.593 93.4735 378.555 94.5298C377.516 95.5682 376.997 97.0721 376.997 99.0415V114H366.497V83.5728H374.312L375.95 88.4336H376.46C377.337 86.8223 378.555 85.5243 380.112 84.5396C381.688 83.5369 383.272 83.0356 384.866 83.0356ZM402.886 114H392.385V83.5728H402.886V114ZM392.117 75.9995C392.117 74.424 392.555 73.2513 393.433 72.4814C394.31 71.7116 395.724 71.3267 397.676 71.3267C399.627 71.3267 401.051 71.7205 401.946 72.5083C402.841 73.2961 403.289 74.4598 403.289 75.9995C403.289 79.0789 401.418 80.6187 397.676 80.6187C393.97 80.6187 392.117 79.0789 392.117 75.9995ZM425.122 106.239C426.536 106.239 428.228 105.89 430.198 105.191V112.845C428.783 113.454 427.432 113.884 426.143 114.134C424.871 114.403 423.376 114.537 421.658 114.537C418.131 114.537 415.588 113.678 414.031 111.959C412.473 110.222 411.694 107.564 411.694 103.983V91.4414H408.015V87.1714L412.688 83.8682L415.4 77.4766H422.275V83.5728H429.741V91.4414H422.275V103.285C422.275 105.254 423.224 106.239 425.122 106.239ZM431.836 83.5728H442.9L448.057 101.029C448.307 101.942 448.477 103.043 448.567 104.332H448.782C448.925 103.097 449.14 102.014 449.426 101.083L454.717 83.5728H465.432L453.401 115.934C451.861 120.051 449.963 122.961 447.708 124.662C445.47 126.362 442.542 127.213 438.926 127.213C437.529 127.213 436.097 127.061 434.629 126.756V118.512C435.578 118.727 436.661 118.834 437.878 118.834C438.809 118.834 439.624 118.655 440.322 118.297C441.021 117.939 441.629 117.429 442.148 116.766C442.668 116.122 443.223 115.056 443.813 113.57L431.836 83.5728Z" fill="white"/>
</svg>
